<?xml version="1.0" encoding="utf-8"?>
<!-- Generator: Adobe Illustrator 26.0.3, SVG Export Plug-In . SVG Version: 6.00 Build 0)  -->
<svg version="1.1" xmlns="http://www.w3.org/2000/svg" xmlns:xlink="http://www.w3.org/1999/xlink" x="0px" y="0px"
	 viewBox="0 0 591.4 408.1" style="enable-background:new 0 0 591.4 408.1;" xml:space="preserve">
<style type="text/css">
	.st0{display:none;}
	.st1{display:inline;}
	.st2{display:inline;fill:#F9BA71;stroke:#FFFFFF;stroke-width:4;stroke-miterlimit:10;}
	.st3{fill:#F9BA71;}
	.st4{display:inline;fill:#5EBFBE;stroke:#FFFFFF;stroke-width:4;stroke-miterlimit:10;}
	.st5{fill:#5EBFBE;}
	.st6{display:inline;stroke:#FFFFFF;stroke-width:4;stroke-miterlimit:10;}
	.st7{display:inline;fill:#FFFFFF;stroke:#000000;stroke-width:4;stroke-miterlimit:10;}
	.st8{fill:#FFFFFF;}
	.st9{display:inline;fill:none;stroke:#000000;stroke-width:3;stroke-miterlimit:10;}
	.st10{fill:none;stroke:#000000;stroke-width:3;stroke-miterlimit:10;}
	.st11{display:inline;fill:#F9BA71;stroke:#F9BA71;stroke-width:6;stroke-miterlimit:10;}
	.st12{display:inline;fill:#5EBFBE;}
	.st13{display:inline;fill:#FFFFFF;}
	.st14{fill:#878787;}
	.st15{display:inline;fill:none;stroke:#F39200;stroke-miterlimit:10;}
</style>
<g id="FOND" class="st0">
	<rect class="st1" width="591.4" height="408.1"/>
</g>
<g id="Orange" class="st0">
	<path class="st2" d="M498.9,125.9l-2.7,1.5l-51.1,29.1l-29,16.5c-6,3.4-13.4-0.9-13.4-7.8v-25.2c-1.1-0.1-2.3-0.1-3.5-0.1
		c-14.6,0-28.2,4.2-39.7,11.3c-20.8,12.9-34.8,35.7-35.5,61.8c0,0.7,0,1.3,0,2c0,0.7,0,1.4,0,2c-0.5,29.7-10.8,57-27.8,78.7
		c-10.4,13.2-23.2,24.4-37.9,32.8c-19.2,11-41.4,17.4-65.2,17.4c-1.3,0-4.6,0-5.8,0v-56c1.2,0.1,4.6,0.3,5.8,0.3
		c14.7,0,28.4-4.2,40-11.5c20.6-13,34.5-35.7,35.2-61.7c0-0.7,0-1.3,0-2c0-0.7,0-1.4,0-2c0.5-29.7,10.8-57,27.8-78.7
		c10.4-13.3,23.4-24.5,38.1-33c19.1-10.9,41.3-17.2,64.9-17.2c1.2,0,2.3,0,3.5,0.1V70.9c0-6.9,7.4-11.1,13.4-7.8l82.9,47.2
		C504.9,113.8,504.9,122.5,498.9,125.9z"/>
	<g class="st1">
		<path class="st3" d="M164.3,297.4c0,17.1-13.9,31-31,31c-17.1,0-31-13.9-31-31c0-17.1,13.9-31,31-31
			C150.4,266.4,164.3,280.3,164.3,297.4z"/>
	</g>
	<path class="st2" d="M510.8,281.5c-19.1,31.6-52.5,58.3-91.9,62.8c-6.8,0.8-26.3,1.2-36.2,0.6c-29-1.9-57.1-16.8-77.4-36.9
		c-3.7-3.7-7.2-7.5-10.3-11.5c-16.7-20.9-27.1-47-28.4-75.4c-0.1-0.5-0.1-1-0.2-1.5c-0.3-7.2-0.3-13.8-0.2-19.7
		c-7.1-33.6-36.9-58.8-72.6-58.8c-68.8,0-109.5,58.8-114.3,141.2c-9.8-20.7-34.2-75.4,1.3-133.9c19.1-31.6,52.5-58.3,91.9-62.8
		c6.8-0.8,26.3-1.2,36.2-0.6c29,1.9,57.1,16.9,77.4,36.9c3.7,3.7,7.2,7.5,10.3,11.5c16.7,20.9,27.1,47,28.4,75.4
		c0.1,0.5,0.2,1,0.2,1.5c0.1,3.2,0,6.2,0,9.1c0,0.1,0,0.2,0.1,0.4c2.6,38.6,33.4,69,72.7,69c68.8,0,109.5-58.9,114.3-141.2
		C521.9,168.2,546.3,222.9,510.8,281.5z"/>
</g>
<g id="Turquoise" class="st0">
	<path class="st4" d="M498.9,125.9l-2.7,1.5l-51.1,29.1l-29,16.5c-6,3.4-13.4-0.9-13.4-7.8v-25.2c-1.1-0.1-2.3-0.1-3.5-0.1
		c-14.6,0-28.2,4.2-39.7,11.3c-20.8,12.9-34.8,35.7-35.5,61.8c0,0.7,0,1.3,0,2c0,0.7,0,1.4,0,2c-0.5,29.7-10.8,57-27.8,78.7
		c-10.4,13.2-23.2,24.4-37.9,32.8c-19.2,11-41.4,17.4-65.2,17.4c-1.3,0-4.6,0-5.8,0v-56c1.2,0.1,4.6,0.3,5.8,0.3
		c14.7,0,28.4-4.2,40-11.5c20.6-13,34.5-35.7,35.2-61.7c0-0.7,0-1.3,0-2c0-0.7,0-1.4,0-2c0.5-29.7,10.8-57,27.8-78.7
		c10.4-13.3,23.4-24.5,38.1-33c19.1-10.9,41.3-17.2,64.9-17.2c1.2,0,2.3,0,3.5,0.1V70.9c0-6.9,7.4-11.1,13.4-7.8l82.9,47.2
		C504.9,113.8,504.9,122.5,498.9,125.9z"/>
	<g class="st1">
		<path class="st5" d="M164.3,297.4c0,17.1-13.9,31-31,31c-17.1,0-31-13.9-31-31c0-17.1,13.9-31,31-31
			C150.4,266.4,164.3,280.3,164.3,297.4z"/>
	</g>
	<path class="st4" d="M510.8,281.5c-19.1,31.6-52.5,58.3-91.9,62.8c-6.8,0.8-26.3,1.2-36.2,0.6c-29-1.9-57.1-16.8-77.4-36.9
		c-3.7-3.7-7.2-7.5-10.3-11.5c-16.7-20.9-27.1-47-28.4-75.4c-0.1-0.5-0.1-1-0.2-1.5c-0.3-7.2-0.3-13.8-0.2-19.7
		c-7.1-33.6-36.9-58.8-72.6-58.8c-68.8,0-109.5,58.8-114.3,141.2c-9.8-20.7-34.2-75.4,1.3-133.9c19.1-31.6,52.5-58.3,91.9-62.8
		c6.8-0.8,26.3-1.2,36.2-0.6c29,1.9,57.1,16.9,77.4,36.9c3.7,3.7,7.2,7.5,10.3,11.5c16.7,20.9,27.1,47,28.4,75.4
		c0.1,0.5,0.2,1,0.2,1.5c0.1,3.2,0,6.2,0,9.1c0,0.1,0,0.2,0.1,0.4c2.6,38.6,33.4,69,72.7,69c68.8,0,109.5-58.9,114.3-141.2
		C521.9,168.2,546.3,222.9,510.8,281.5z"/>
</g>
<g id="Noir" class="st0">
	<path class="st6" d="M498.9,125.9l-2.7,1.5l-51.1,29.1l-29,16.5c-6,3.4-13.4-0.9-13.4-7.8v-25.2c-1.1-0.1-2.3-0.1-3.5-0.1
		c-14.6,0-28.2,4.2-39.7,11.3c-20.8,12.9-34.8,35.7-35.5,61.8c0,0.7,0,1.3,0,2c0,0.7,0,1.4,0,2c-0.5,29.7-10.8,57-27.8,78.7
		c-10.4,13.2-23.2,24.4-37.9,32.8c-19.2,11-41.4,17.4-65.2,17.4c-1.3,0-4.6,0-5.8,0v-56c1.2,0.1,4.6,0.3,5.8,0.3
		c14.7,0,28.4-4.2,40-11.5c20.6-13,34.5-35.7,35.2-61.7c0-0.7,0-1.3,0-2c0-0.7,0-1.4,0-2c0.5-29.7,10.8-57,27.8-78.7
		c10.4-13.3,23.4-24.5,38.1-33c19.1-10.9,41.3-17.2,64.9-17.2c1.2,0,2.3,0,3.5,0.1V70.9c0-6.9,7.4-11.1,13.4-7.8l82.9,47.2
		C504.9,113.8,504.9,122.5,498.9,125.9z"/>
	<g class="st1">
		<path d="M164.3,297.4c0,17.1-13.9,31-31,31c-17.1,0-31-13.9-31-31c0-17.1,13.9-31,31-31C150.4,266.4,164.3,280.3,164.3,297.4z"/>
	</g>
	<path class="st6" d="M510.8,281.5c-19.1,31.6-52.5,58.3-91.9,62.8c-6.8,0.8-26.3,1.2-36.2,0.6c-29-1.9-57.1-16.8-77.4-36.9
		c-3.7-3.7-7.2-7.5-10.3-11.5c-16.7-20.9-27.1-47-28.4-75.4c-0.1-0.5-0.1-1-0.2-1.5c-0.3-7.2-0.3-13.8-0.2-19.7
		c-7.1-33.6-36.9-58.8-72.6-58.8c-68.8,0-109.5,58.8-114.3,141.2c-9.8-20.7-34.2-75.4,1.3-133.9c19.1-31.6,52.5-58.3,91.9-62.8
		c6.8-0.8,26.3-1.2,36.2-0.6c29,1.9,57.1,16.9,77.4,36.9c3.7,3.7,7.2,7.5,10.3,11.5c16.7,20.9,27.1,47,28.4,75.4
		c0.1,0.5,0.2,1,0.2,1.5c0.1,3.2,0,6.2,0,9.1c0,0.1,0,0.2,0.1,0.4c2.6,38.6,33.4,69,72.7,69c68.8,0,109.5-58.9,114.3-141.2
		C521.9,168.2,546.3,222.9,510.8,281.5z"/>
</g>
<g id="Blanc" class="st0">
	<path class="st7" d="M498.9,125.9l-2.7,1.5l-51.1,29.1l-29,16.5c-6,3.4-13.4-0.9-13.4-7.8v-25.2c-1.1-0.1-2.3-0.1-3.5-0.1
		c-14.6,0-28.2,4.2-39.7,11.3c-20.8,12.9-34.8,35.7-35.5,61.8c0,0.7,0,1.3,0,2c0,0.7,0,1.4,0,2c-0.5,29.7-10.8,57-27.8,78.7
		c-10.4,13.2-23.2,24.4-37.9,32.8c-19.2,11-41.4,17.4-65.2,17.4c-1.3,0-4.6,0-5.8,0v-56c1.2,0.1,4.6,0.3,5.8,0.3
		c14.7,0,28.4-4.2,40-11.5c20.6-13,34.5-35.7,35.2-61.7c0-0.7,0-1.3,0-2c0-0.7,0-1.4,0-2c0.5-29.7,10.8-57,27.8-78.7
		c10.4-13.3,23.4-24.5,38.1-33c19.1-10.9,41.3-17.2,64.9-17.2c1.2,0,2.3,0,3.5,0.1V70.9c0-6.9,7.4-11.1,13.4-7.8l82.9,47.2
		C504.9,113.8,504.9,122.5,498.9,125.9z"/>
	<g class="st1">
		<path class="st8" d="M164.3,297.4c0,17.1-13.9,31-31,31c-17.1,0-31-13.9-31-31c0-17.1,13.9-31,31-31
			C150.4,266.4,164.3,280.3,164.3,297.4z"/>
	</g>
	<path class="st7" d="M510.8,281.5c-19.1,31.6-52.5,58.3-91.9,62.8c-6.8,0.8-26.3,1.2-36.2,0.6c-29-1.9-57.1-16.8-77.4-36.9
		c-3.7-3.7-7.2-7.5-10.3-11.5c-16.7-20.9-27.1-47-28.4-75.4c-0.1-0.5-0.1-1-0.2-1.5c-0.3-7.2-0.3-13.8-0.2-19.7
		c-7.1-33.6-36.9-58.8-72.6-58.8c-68.8,0-109.5,58.8-114.3,141.2c-9.8-20.7-34.2-75.4,1.3-133.9c19.1-31.6,52.5-58.3,91.9-62.8
		c6.8-0.8,26.3-1.2,36.2-0.6c29,1.9,57.1,16.9,77.4,36.9c3.7,3.7,7.2,7.5,10.3,11.5c16.7,20.9,27.1,47,28.4,75.4
		c0.1,0.5,0.2,1,0.2,1.5c0.1,3.2,0,6.2,0,9.1c0,0.1,0,0.2,0.1,0.4c2.6,38.6,33.4,69,72.7,69c68.8,0,109.5-58.9,114.3-141.2
		C521.9,168.2,546.3,222.9,510.8,281.5z"/>
</g>
<g id="Monocrome1" class="st0">
	<path class="st1" d="M498.9,125.9l-2.7,1.5l-51.1,29.1l-29,16.5c-6,3.4-13.4-0.9-13.4-7.8v-25.2c-1.1-0.1-2.3-0.1-3.5-0.1
		c-14.6,0-28.2,4.2-39.7,11.3c-20.8,12.9-34.8,35.7-35.5,61.8c0,0.7,0,1.3,0,2c0,0.7,0,1.4,0,2c-0.5,29.7-10.8,57-27.8,78.7
		c-10.4,13.2-23.2,24.4-37.9,32.8c-19.2,11-41.4,17.4-65.2,17.4c-1.3,0-4.6,0-5.8,0v-56c1.2,0.1,4.6,0.3,5.8,0.3
		c14.7,0,28.4-4.2,40-11.5c20.6-13,34.5-35.7,35.2-61.7c0-0.7,0-1.3,0-2c0-0.7,0-1.4,0-2c0.5-29.7,10.8-57,27.8-78.7
		c10.4-13.3,23.4-24.5,38.1-33c19.1-10.9,41.3-17.2,64.9-17.2c1.2,0,2.3,0,3.5,0.1V70.9c0-6.9,7.4-11.1,13.4-7.8l82.9,47.2
		C504.9,113.8,504.9,122.5,498.9,125.9z"/>
	<g class="st1">
		<path d="M164.3,297.4c0,17.1-13.9,31-31,31c-17.1,0-31-13.9-31-31c0-17.1,13.9-31,31-31C150.4,266.4,164.3,280.3,164.3,297.4z"/>
	</g>
	<path class="st9" d="M510.8,281.5c-19.1,31.6-52.5,58.3-91.9,62.8c-6.8,0.8-26.3,1.2-36.2,0.6c-29-1.9-57.1-16.8-77.4-36.9
		c-3.7-3.7-7.2-7.5-10.3-11.5c-16.7-20.9-27.1-47-28.4-75.4c-0.1-0.5-0.1-1-0.2-1.5c-0.3-7.2-0.3-13.8-0.2-19.7
		c-7.1-33.6-36.9-58.8-72.6-58.8c-68.8,0-109.5,58.8-114.3,141.2c-9.8-20.7-34.2-75.4,1.3-133.9c19.1-31.6,52.5-58.3,91.9-62.8
		c6.8-0.8,26.3-1.2,36.2-0.6c29,1.9,57.1,16.9,77.4,36.9c3.7,3.7,7.2,7.5,10.3,11.5c16.7,20.9,27.1,47,28.4,75.4
		c0.1,0.5,0.2,1,0.2,1.5c0.1,3.2,0,6.2,0,9.1c0,0.1,0,0.2,0.1,0.4c2.6,38.6,33.4,69,72.7,69c68.8,0,109.5-58.9,114.3-141.2
		C521.9,168.2,546.3,222.9,510.8,281.5z"/>
</g>
<g id="Monocrome2">
	<path class="st10" d="M498.9,125.9l-2.7,1.5l-51.1,29.1l-29,16.5c-6,3.4-13.4-0.9-13.4-7.8v-25.2c-1.1-0.1-2.3-0.1-3.5-0.1
		c-14.6,0-28.2,4.2-39.7,11.3c-20.8,12.9-34.8,35.7-35.5,61.8c0,0.7,0,1.3,0,2c0,0.7,0,1.4,0,2c-0.5,29.7-10.8,57-27.8,78.7
		c-10.4,13.2-23.2,24.4-37.9,32.8c-19.2,11-41.4,17.4-65.2,17.4c-1.3,0-4.6,0-5.8,0v-56c1.2,0.1,4.6,0.3,5.8,0.3
		c14.7,0,28.4-4.2,40-11.5c20.6-13,34.5-35.7,35.2-61.7c0-0.7,0-1.3,0-2c0-0.7,0-1.4,0-2c0.5-29.7,10.8-57,27.8-78.7
		c10.4-13.3,23.4-24.5,38.1-33c19.1-10.9,41.3-17.2,64.9-17.2c1.2,0,2.3,0,3.5,0.1V70.9c0-6.9,7.4-11.1,13.4-7.8l82.9,47.2
		C504.9,113.8,504.9,122.5,498.9,125.9z"/>
	<g>
		<path class="st10" d="M164.3,297.4c0,17.1-13.9,31-31,31c-17.1,0-31-13.9-31-31c0-17.1,13.9-31,31-31
			C150.4,266.4,164.3,280.3,164.3,297.4z"/>
	</g>
	<path d="M510.8,281.5c-19.1,31.6-52.5,58.3-91.9,62.8c-6.8,0.8-26.3,1.2-36.2,0.6c-29-1.9-57.1-16.8-77.4-36.9
		c-3.7-3.7-7.2-7.5-10.3-11.5c-16.7-20.9-27.1-47-28.4-75.4c-0.1-0.5-0.1-1-0.2-1.5c-0.3-7.2-0.3-13.8-0.2-19.7
		c-7.1-33.6-36.9-58.8-72.6-58.8c-68.8,0-109.5,58.8-114.3,141.2c-9.8-20.7-34.2-75.4,1.3-133.9c19.1-31.6,52.5-58.3,91.9-62.8
		c6.8-0.8,26.3-1.2,36.2-0.6c29,1.9,57.1,16.9,77.4,36.9c3.7,3.7,7.2,7.5,10.3,11.5c16.7,20.9,27.1,47,28.4,75.4
		c0.1,0.5,0.2,1,0.2,1.5c0.1,3.2,0,6.2,0,9.1c0,0.1,0,0.2,0.1,0.4c2.6,38.6,33.4,69,72.7,69c68.8,0,109.5-58.9,114.3-141.2
		C521.9,168.2,546.3,222.9,510.8,281.5z"/>
</g>
<g id="Coul-B" class="st0">
	<path class="st1" d="M498.9,125.9l-2.7,1.5l-51.1,29.1l-29,16.5c-6,3.4-13.4-0.9-13.4-7.8v-25.2c-1.1-0.1-2.3-0.1-3.5-0.1
		c-14.6,0-28.2,4.2-39.7,11.3c-20.8,12.9-34.8,35.7-35.5,61.8c0,0.7,0,1.3,0,2c0,0.7,0,1.4,0,2c-0.5,29.7-10.8,57-27.8,78.7
		c-10.4,13.2-23.2,24.4-37.9,32.8c-19.2,11-41.4,17.4-65.2,17.4c-1.3,0-4.6,0-5.8,0v-56c1.2,0.1,4.6,0.3,5.8,0.3
		c14.7,0,28.4-4.2,40-11.5c20.6-13,34.5-35.7,35.2-61.7c0-0.7,0-1.3,0-2c0-0.7,0-1.4,0-2c0.5-29.7,10.8-57,27.8-78.7
		c10.4-13.3,23.4-24.5,38.1-33c19.1-10.9,41.3-17.2,64.9-17.2c1.2,0,2.3,0,3.5,0.1V70.9c0-6.9,7.4-11.1,13.4-7.8l82.9,47.2
		C504.9,113.8,504.9,122.5,498.9,125.9z"/>
	<circle class="st11" cx="133.3" cy="297.4" r="28"/>
	<path class="st12" d="M510.8,281.5c-19.1,31.6-52.5,58.3-91.9,62.8c-6.8,0.8-26.3,1.2-36.2,0.6c-29-1.9-57.1-16.8-77.4-36.9
		c-3.7-3.7-7.2-7.5-10.3-11.5c-16.7-20.9-27.1-47-28.4-75.4c-0.1-0.5-0.1-1-0.2-1.5c-0.3-7.2-0.3-13.8-0.2-19.7
		c-7.1-33.6-36.9-58.8-72.6-58.8c-68.8,0-109.5,58.8-114.3,141.2c-9.8-20.7-34.2-75.4,1.3-133.9c19.1-31.6,52.5-58.3,91.9-62.8
		c6.8-0.8,26.3-1.2,36.2-0.6c29,1.9,57.1,16.9,77.4,36.9c3.7,3.7,7.2,7.5,10.3,11.5c16.7,20.9,27.1,47,28.4,75.4
		c0.1,0.5,0.2,1,0.2,1.5c0.1,3.2,0,6.2,0,9.1c0,0.1,0,0.2,0.1,0.4c2.6,38.6,33.4,69,72.7,69c68.8,0,109.5-58.9,114.3-141.2
		C521.9,168.2,546.3,222.9,510.8,281.5z"/>
</g>
<g id="Coul-N" class="st0">
	<path class="st13" d="M498.9,125.9l-2.7,1.5l-51.1,29.1l-29,16.5c-6,3.4-13.4-0.9-13.4-7.8v-25.2c-1.1-0.1-2.3-0.1-3.5-0.1
		c-14.6,0-28.2,4.2-39.7,11.3c-20.8,12.9-34.8,35.7-35.5,61.8c0,0.7,0,1.3,0,2c0,0.7,0,1.4,0,2c-0.5,29.7-10.8,57-27.8,78.7
		c-10.4,13.2-23.2,24.4-37.9,32.8c-19.2,11-41.4,17.4-65.2,17.4c-1.3,0-4.6,0-5.8,0v-56c1.2,0.1,4.6,0.3,5.8,0.3
		c14.7,0,28.4-4.2,40-11.5c20.6-13,34.5-35.7,35.2-61.7c0-0.7,0-1.3,0-2c0-0.7,0-1.4,0-2c0.5-29.7,10.8-57,27.8-78.7
		c10.4-13.3,23.4-24.5,38.1-33c19.1-10.9,41.3-17.2,64.9-17.2c1.2,0,2.3,0,3.5,0.1V70.9c0-6.9,7.4-11.1,13.4-7.8l82.9,47.2
		C504.9,113.8,504.9,122.5,498.9,125.9z"/>
	<circle class="st11" cx="133.3" cy="297.4" r="28"/>
	<path class="st12" d="M510.8,281.5c-19.1,31.6-52.5,58.3-91.9,62.8c-6.8,0.8-26.3,1.2-36.2,0.6c-29-1.9-57.1-16.8-77.4-36.9
		c-3.7-3.7-7.2-7.5-10.3-11.5c-16.7-20.9-27.1-47-28.4-75.4c-0.1-0.5-0.1-1-0.2-1.5c-0.3-7.2-0.3-13.8-0.2-19.7
		c-7.1-33.6-36.9-58.8-72.6-58.8c-68.8,0-109.5,58.8-114.3,141.2c-9.8-20.7-34.2-75.4,1.3-133.9c19.1-31.6,52.5-58.3,91.9-62.8
		c6.8-0.8,26.3-1.2,36.2-0.6c29,1.9,57.1,16.9,77.4,36.9c3.7,3.7,7.2,7.5,10.3,11.5c16.7,20.9,27.1,47,28.4,75.4
		c0.1,0.5,0.2,1,0.2,1.5c0.1,3.2,0,6.2,0,9.1c0,0.1,0,0.2,0.1,0.4c2.6,38.6,33.4,69,72.7,69c68.8,0,109.5-58.9,114.3-141.2
		C521.9,168.2,546.3,222.9,510.8,281.5z"/>
</g>
<g id="Repère" class="st0">
	<g class="st1">
		<path class="st14" d="M330.3,377.1c0,17.1-13.9,31-31,31c-17.1,0-31-13.9-31-31c0-17.1,13.9-31,31-31
			C316.4,346.1,330.3,360,330.3,377.1z"/>
	</g>
	<g class="st1">
		<path class="st14" d="M330.3,31c0,17.1-13.9,31-31,31c-17.1,0-31-13.9-31-31c0-17.1,13.9-31,31-31C316.4,0,330.3,13.9,330.3,31z"
			/>
	</g>
	<g class="st1">
		<path class="st14" d="M62,212.2c0,17.1-13.9,31-31,31c-17.1,0-31-13.9-31-31c0-17.1,13.9-31,31-31C48.1,181.2,62,195.1,62,212.2z"
			/>
	</g>
	<g class="st1">
		<path class="st14" d="M591.4,212.2c0,17.1-13.9,31-31,31c-17.1,0-31-13.9-31-31c0-17.1,13.9-31,31-31
			C577.5,181.2,591.4,195.1,591.4,212.2z"/>
	</g>
</g>
<g id="Calque_9" class="st0">
	<circle class="st15" cx="192.4" cy="215.1" r="74.2"/>
	<circle class="st15" cx="193.1" cy="214.7" r="131.4"/>
	<circle class="st15" cx="397.2" cy="215.1" r="74.2"/>
	<circle class="st15" cx="398.9" cy="215.7" r="131.4"/>
	<rect x="79.3" y="62.4" class="st15" width="432" height="283.7"/>
	<rect x="112.1" y="46.7" transform="matrix(0.5 -0.866 0.866 0.5 -31.8134 362.8546)" class="st15" width="372.5" height="324.6"/>
</g>
</svg>
